# xmcd CD database file
# Copyright (C) 1993-1996 Ti Kan
#
# Track frame offsets:
#  150
#  19239
#  38605
#  60828
#  84049
#  101149
#  122421
#  137974
#  158489
#  178351
#  193242
#  213647
#  234491
#  248474
#  263605
#  282154
#  295861
#
# Disc length: 4202 seconds
#
# Revision: 1
# Processed by: cddbd v1.5.2PL0 Copyright (c) Steve Scherf et al.
# Submitted via: Advanced CD Ripper Pro 2.0
#
DISCID=e5106811
DTITLE=一个人 - 情动草原
DYEAR=2003
DGENRE=other
TTITLE0=鸿雁
TTITLE1=卓玛
TTITLE2=草原我生命的依托
TTITLE3=乌兰巴托的夜
TTITLE4=下马酒之歌
TTITLE5=雕花的马鞍
TTITLE6=陪你一起看草原
TTITLE7=吉祥的鄂尔多斯
TTITLE8=草原牧歌
TTITLE9=我和草原有个约定
TTITLE10=红雨伞
TTITLE11=牧人
TTITLE12=吉祥三宝
TTITLE13=遇上你是我的缘
TTITLE14=乌兰巴托的爸爸
TTITLE15=美丽的蒙古包
TTITLE16=身披彩衣的姑娘
EXTD=
EXTT0=
EXTT1=
EXTT2=
EXTT3=
EXTT4=
EXTT5=
EXTT6=
EXTT7=
EXTT8=
EXTT9=
EXTT10=
EXTT11=
EXTT12=
EXTT13=
EXTT14=
EXTT15=
EXTT16=
PLAYORDER=
